<svg xmlns="http://www.w3.org/2000/svg" xmlns:xlink="http://www.w3.org/1999/xlink" contentStyleType="text/css" height="596px" preserveAspectRatio="none" style="width:2857px;height:596px;background:#777777;" version="1.1" viewBox="0 0 2857 596" width="2857px" zoomAndPan="magnify"><defs/><g><rect fill="#777777" height="596" style="stroke:none;stroke-width:1;" width="2857" x="0" y="0"/><!--cluster Mundo--><g id="cluster_Mundo"><path d="M8.5,275.22 L63.0049,275.22 A3.75,3.75 0 0 1 65.5049,277.72 L72.5049,297.5169 L391.5,297.5169 A2.5,2.5 0 0 1 394,300.0169 L394,582.72 A2.5,2.5 0 0 1 391.5,585.22 L8.5,585.22 A2.5,2.5 0 0 1 6,582.72 L6,277.72 A2.5,2.5 0 0 1 8.5,275.22 " fill="none" style="stroke:#000000;stroke-width:1.5;"/><line style="stroke:#000000;stroke-width:1.5;" x1="6" x2="72.5049" y1="297.5169" y2="297.5169"/><text fill="#000000" font-family="sans-serif" font-size="14" font-weight="bold" lengthAdjust="spacing" textLength="53.5049" x="10" y="290.2151">Mundo</text></g><!--cluster JCosas--><g id="cluster_JCosas"><path d="M2220.5,158.22 L2272.7148,158.22 A3.75,3.75 0 0 1 2275.2148,160.72 L2282.2148,180.5169 L2847.5,180.5169 A2.5,2.5 0 0 1 2850,183.0169 L2850,248.72 A2.5,2.5 0 0 1 2847.5,251.22 L2220.5,251.22 A2.5,2.5 0 0 1 2218,248.72 L2218,160.72 A2.5,2.5 0 0 1 2220.5,158.22 " fill="none" style="stroke:#000000;stroke-width:1.5;"/><line style="stroke:#000000;stroke-width:1.5;" x1="2218" x2="2282.2148" y1="180.5169" y2="180.5169"/><text fill="#000000" font-family="sans-serif" font-size="14" font-weight="bold" lengthAdjust="spacing" textLength="51.2148" x="2222" y="173.2151">JCosas</text></g><!--cluster GUI--><g id="cluster_GUI"><path d="M420.5,102.22 L449.5684,102.22 A3.75,3.75 0 0 1 452.0684,104.72 L459.0684,124.5169 L2191.5,124.5169 A2.5,2.5 0 0 1 2194,127.0169 L2194,587.22 A2.5,2.5 0 0 1 2191.5,589.72 L420.5,589.72 A2.5,2.5 0 0 1 418,587.22 L418,104.72 A2.5,2.5 0 0 1 420.5,102.22 " fill="none" style="stroke:#000000;stroke-width:1.5;"/><line style="stroke:#000000;stroke-width:1.5;" x1="418" x2="459.0684" y1="124.5169" y2="124.5169"/><text fill="#000000" font-family="sans-serif" font-size="14" font-weight="bold" lengthAdjust="spacing" textLength="28.0684" x="422" y="117.2151">GUI</text></g><!--cluster Main--><g id="cluster_Main"><path d="M444.5,145.22 L483.6445,145.22 A3.75,3.75 0 0 1 486.1445,147.72 L493.1445,167.5169 L1097.5,167.5169 A2.5,2.5 0 0 1 1100,170.0169 L1100,397.72 A2.5,2.5 0 0 1 1097.5,400.22 L444.5,400.22 A2.5,2.5 0 0 1 442,397.72 L442,147.72 A2.5,2.5 0 0 1 444.5,145.22 " fill="none" style="stroke:#000000;stroke-width:1.5;"/><line style="stroke:#000000;stroke-width:1.5;" x1="442" x2="493.1445" y1="167.5169" y2="167.5169"/><text fill="#000000" font-family="sans-serif" font-size="14" font-weight="bold" lengthAdjust="spacing" textLength="38.1445" x="446" y="160.2151">Main</text></g><!--cluster Mapa--><g id="cluster_Mapa"><path d="M1126.5,275.22 L1170.3477,275.22 A3.75,3.75 0 0 1 1172.8477,277.72 L1179.8477,297.5169 L1435.5,297.5169 A2.5,2.5 0 0 1 1438,300.0169 L1438,550.72 A2.5,2.5 0 0 1 1435.5,553.22 L1126.5,553.22 A2.5,2.5 0 0 1 1124,550.72 L1124,277.72 A2.5,2.5 0 0 1 1126.5,275.22 " fill="none" style="stroke:#000000;stroke-width:1.5;"/><line style="stroke:#000000;stroke-width:1.5;" x1="1124" x2="1179.8477" y1="297.5169" y2="297.5169"/><text fill="#000000" font-family="sans-serif" font-size="14" font-weight="bold" lengthAdjust="spacing" textLength="42.8477" x="1128" y="290.2151">Mapa</text></g><!--cluster Agregar--><g id="cluster_Agregar"><path d="M1464.5,281.22 L1529.1289,281.22 A3.75,3.75 0 0 1 1531.6289,283.72 L1538.6289,303.5169 L2167.5,303.5169 A2.5,2.5 0 0 1 2170,306.0169 L2170,563.22 A2.5,2.5 0 0 1 2167.5,565.72 L1464.5,565.72 A2.5,2.5 0 0 1 1462,563.22 L1462,283.72 A2.5,2.5 0 0 1 1464.5,281.22 " fill="none" style="stroke:#000000;stroke-width:1.5;"/><line style="stroke:#000000;stroke-width:1.5;" x1="1462" x2="1538.6289" y1="303.5169" y2="303.5169"/><text fill="#000000" font-family="sans-serif" font-size="14" font-weight="bold" lengthAdjust="spacing" textLength="63.6289" x="1466" y="296.2151">Agregar</text></g><!--class Restaurante--><g id="elem_Restaurante"><rect codeLine="4" fill="#2E2E2E" height="118.8281" id="Restaurante" rx="2.5" ry="2.5" style="stroke:#1B1B1B;stroke-width:0.5;" width="354.7671" x="22.5" y="450.22"/><ellipse cx="162.6423" cy="463.22" fill="#ADD1B2" rx="8" ry="8" style="stroke:#181818;stroke-width:1;"/><path d="M164.7673,466.7825 Q164.1892,467.0794 163.5642,467.22 Q162.9548,467.3763 162.283,467.3763 Q160.283,467.3763 159.1111,466.2669 Q157.9392,465.1419 157.9392,463.22 Q157.9392,461.2981 159.1111,460.1731 Q160.283,459.0481 162.283,459.0481 Q162.9548,459.0481 163.5642,459.2044 Q164.1892,459.3606 164.7673,459.6575 L164.7673,461.3138 Q164.1892,460.9231 163.6267,460.7356 Q163.0642,460.5481 162.4548,460.5481 Q161.3455,460.5481 160.7048,461.2669 Q160.0798,461.97 160.0798,463.22 Q160.0798,464.4544 160.7048,465.1731 Q161.3455,465.8763 162.4548,465.8763 Q163.0642,465.8763 163.6267,465.7044 Q164.1892,465.5169 164.7673,465.1263 L164.7673,466.7825 Z " fill="#000000"/><text fill="#AAAAAA" font-family="Verdana" font-size="11" lengthAdjust="spacing" textLength="67.4824" x="178.6423" y="467.0281">Restaurante</text><line style="stroke:#1B1B1B;stroke-width:0.5;" x1="23.5" x2="376.2671" y1="476.22" y2="476.22"/><rect fill="none" height="6" style="stroke:#C82930;stroke-width:1;" width="6" x="30.5" y="484.6223"/><text fill="#AAAAAA" font-family="sans-serif" font-size="11" lengthAdjust="spacing" textLength="42.6895" x="39.5" y="490.4304">nombre</text><rect fill="none" height="6" style="stroke:#C82930;stroke-width:1;" width="6" x="30.5" y="497.427"/><text fill="#AAAAAA" font-family="sans-serif" font-size="11" lengthAdjust="spacing" textLength="61.4238" x="39.5" y="503.2351">calificacion</text><rect fill="none" height="6" style="stroke:#C82930;stroke-width:1;" width="6" x="30.5" y="510.2317"/><text fill="#AAAAAA" font-family="sans-serif" font-size="11" lengthAdjust="spacing" textLength="63.6528" x="39.5" y="516.0398">longitud [x]</text><rect fill="none" height="6" style="stroke:#C82930;stroke-width:1;" width="6" x="30.5" y="523.0364"/><text fill="#AAAAAA" font-family="sans-serif" font-size="11" lengthAdjust="spacing" textLength="54.0225" x="39.5" y="528.8445">latitud [y]</text><rect fill="none" height="6" style="stroke:#C82930;stroke-width:1;" width="6" x="30.5" y="535.8411"/><text fill="#AAAAAA" font-family="sans-serif" font-size="11" lengthAdjust="spacing" textLength="43.1191" x="39.5" y="541.6492">visitado</text><line style="stroke:#1B1B1B;stroke-width:0.5;" x1="23.5" x2="376.2671" y1="548.2434" y2="548.2434"/><ellipse cx="33.5" cy="559.6458" fill="#84BE84" rx="3" ry="3" style="stroke:#038048;stroke-width:1;"/><text fill="#AAAAAA" font-family="sans-serif" font-size="11" lengthAdjust="spacing" textLength="331.7671" x="39.5" y="562.4539">Restaurante(nombre, calificacion, latitud, longitud, visitado)</text></g><!--class Diario--><g id="elem_Diario"><rect codeLine="14" fill="#2E2E2E" height="80.4141" id="Diario" rx="2.5" ry="2.5" style="stroke:#1B1B1B;stroke-width:0.5;" width="209.8066" x="131" y="310.22"/><ellipse cx="216.1155" cy="323.22" fill="#ADD1B2" rx="8" ry="8" style="stroke:#181818;stroke-width:1;"/><path d="M218.2405,326.7825 Q217.6624,327.0794 217.0374,327.22 Q216.428,327.3763 215.7561,327.3763 Q213.7561,327.3763 212.5842,326.2669 Q211.4124,325.1419 211.4124,323.22 Q211.4124,321.2981 212.5842,320.1731 Q213.7561,319.0481 215.7561,319.0481 Q216.428,319.0481 217.0374,319.2044 Q217.6624,319.3606 218.2405,319.6575 L218.2405,321.3138 Q217.6624,320.9231 217.0999,320.7356 Q216.5374,320.5481 215.928,320.5481 Q214.8186,320.5481 214.178,321.2669 Q213.553,321.97 213.553,323.22 Q213.553,324.4544 214.178,325.1731 Q214.8186,325.8763 215.928,325.8763 Q216.5374,325.8763 217.0999,325.7044 Q217.6624,325.5169 218.2405,325.1263 L218.2405,326.7825 Z " fill="#000000"/><text fill="#AAAAAA" font-family="Verdana" font-size="11" lengthAdjust="spacing" textLength="32.5757" x="232.1155" y="327.0281">Diario</text><line style="stroke:#1B1B1B;stroke-width:0.5;" x1="132" x2="339.8066" y1="336.22" y2="336.22"/><rect fill="none" height="6" style="stroke:#C82930;stroke-width:1;" width="6" x="139" y="344.6223"/><text fill="#AAAAAA" font-family="sans-serif" font-size="11" lengthAdjust="spacing" textLength="113.7329" x="148" y="350.4304">lista de restaurantes</text><line style="stroke:#1B1B1B;stroke-width:0.5;" x1="132" x2="339.8066" y1="357.0247" y2="357.0247"/><ellipse cx="142" cy="368.427" fill="#84BE84" rx="3" ry="3" style="stroke:#038048;stroke-width:1;"/><text fill="#AAAAAA" font-family="sans-serif" font-size="11" lengthAdjust="spacing" textLength="41.1587" x="148" y="371.2351">Diario()</text><ellipse cx="142" cy="381.2317" fill="#84BE84" rx="3" ry="3" style="stroke:#038048;stroke-width:1;"/><text fill="#AAAAAA" font-family="sans-serif" font-size="11" lengthAdjust="spacing" textLength="186.8066" x="148" y="384.0398">agregarRestaurante(Restaurante)</text></g><!--class JFrame--><g id="elem_JFrame"><rect codeLine="22" fill="#2E2E2E" height="42" id="JFrame" rx="2.5" ry="2.5" style="stroke:#1B1B1B;stroke-width:0.5;" width="64.3174" x="2534" y="193.22"/><ellipse cx="2546" cy="206.22" fill="#ADD1B2" rx="8" ry="8" style="stroke:#181818;stroke-width:1;"/><path d="M2548.125,209.7825 Q2547.5469,210.0794 2546.9219,210.22 Q2546.3125,210.3763 2545.6406,210.3763 Q2543.6406,210.3763 2542.4688,209.2669 Q2541.2969,208.1419 2541.2969,206.22 Q2541.2969,204.2981 2542.4688,203.1731 Q2543.6406,202.0481 2545.6406,202.0481 Q2546.3125,202.0481 2546.9219,202.2044 Q2547.5469,202.3606 2548.125,202.6575 L2548.125,204.3138 Q2547.5469,203.9231 2546.9844,203.7356 Q2546.4219,203.5481 2545.8125,203.5481 Q2544.7031,203.5481 2544.0625,204.2669 Q2543.4375,204.97 2543.4375,206.22 Q2543.4375,207.4544 2544.0625,208.1731 Q2544.7031,208.8763 2545.8125,208.8763 Q2546.4219,208.8763 2546.9844,208.7044 Q2547.5469,208.5169 2548.125,208.1263 L2548.125,209.7825 Z " fill="#000000"/><text fill="#AAAAAA" font-family="Verdana" font-size="11" lengthAdjust="spacing" textLength="38.3174" x="2557" y="210.0281">JFrame</text><line style="stroke:#1B1B1B;stroke-width:0.5;" x1="2535" x2="2597.3174" y1="219.22" y2="219.22"/><line style="stroke:#1B1B1B;stroke-width:0.5;" x1="2535" x2="2597.3174" y1="227.22" y2="227.22"/></g><!--class JPanel--><g id="elem_JPanel"><rect codeLine="23" fill="#2E2E2E" height="42" id="JPanel" rx="2.5" ry="2.5" style="stroke:#1B1B1B;stroke-width:0.5;" width="59.4136" x="2633.5" y="193.22"/><ellipse cx="2645.5" cy="206.22" fill="#ADD1B2" rx="8" ry="8" style="stroke:#181818;stroke-width:1;"/><path d="M2647.625,209.7825 Q2647.0469,210.0794 2646.4219,210.22 Q2645.8125,210.3763 2645.1406,210.3763 Q2643.1406,210.3763 2641.9688,209.2669 Q2640.7969,208.1419 2640.7969,206.22 Q2640.7969,204.2981 2641.9688,203.1731 Q2643.1406,202.0481 2645.1406,202.0481 Q2645.8125,202.0481 2646.4219,202.2044 Q2647.0469,202.3606 2647.625,202.6575 L2647.625,204.3138 Q2647.0469,203.9231 2646.4844,203.7356 Q2645.9219,203.5481 2645.3125,203.5481 Q2644.2031,203.5481 2643.5625,204.2669 Q2642.9375,204.97 2642.9375,206.22 Q2642.9375,207.4544 2643.5625,208.1731 Q2644.2031,208.8763 2645.3125,208.8763 Q2645.9219,208.8763 2646.4844,208.7044 Q2647.0469,208.5169 2647.625,208.1263 L2647.625,209.7825 Z " fill="#000000"/><text fill="#AAAAAA" font-family="Verdana" font-size="11" lengthAdjust="spacing" textLength="33.4136" x="2656.5" y="210.0281">JPanel</text><line style="stroke:#1B1B1B;stroke-width:0.5;" x1="2634.5" x2="2691.9136" y1="219.22" y2="219.22"/><line style="stroke:#1B1B1B;stroke-width:0.5;" x1="2634.5" x2="2691.9136" y1="227.22" y2="227.22"/></g><!--class ActionListener--><g id="elem_ActionListener"><rect codeLine="24" fill="#2E2E2E" height="42" id="ActionListener" rx="2.5" ry="2.5" style="stroke:#1B1B1B;stroke-width:0.5;" width="104.9014" x="2393.5" y="193.22"/><ellipse cx="2405.5" cy="206.22" fill="#B4A7E5" rx="8" ry="8" style="stroke:#181818;stroke-width:1;"/><path d="M2404.5156,202.2044 L2406.5781,202.2044 L2406.5781,210.22 L2404.5156,210.22 L2404.5156,202.2044 Z " fill="#000000"/><text fill="#AAAAAA" font-family="Verdana" font-size="11" font-style="italic" lengthAdjust="spacing" textLength="78.9014" x="2416.5" y="210.0281">ActionListener</text><line style="stroke:#1B1B1B;stroke-width:0.5;" x1="2394.5" x2="2497.4014" y1="219.22" y2="219.22"/><line style="stroke:#1B1B1B;stroke-width:0.5;" x1="2394.5" x2="2497.4014" y1="227.22" y2="227.22"/></g><!--class ListActionListener--><g id="elem_ListActionListener"><rect codeLine="25" fill="#2E2E2E" height="42" id="ListActionListener" rx="2.5" ry="2.5" style="stroke:#1B1B1B;stroke-width:0.5;" width="124.1299" x="2234" y="193.22"/><ellipse cx="2246" cy="206.22" fill="#B4A7E5" rx="8" ry="8" style="stroke:#181818;stroke-width:1;"/><path d="M2245.0156,202.2044 L2247.0781,202.2044 L2247.0781,210.22 L2245.0156,210.22 L2245.0156,202.2044 Z " fill="#000000"/><text fill="#AAAAAA" font-family="Verdana" font-size="11" font-style="italic" lengthAdjust="spacing" textLength="98.1299" x="2257" y="210.0281">ListActionListener</text><line style="stroke:#1B1B1B;stroke-width:0.5;" x1="2235" x2="2357.1299" y1="219.22" y2="219.22"/><line style="stroke:#1B1B1B;stroke-width:0.5;" x1="2235" x2="2357.1299" y1="227.22" y2="227.22"/></g><!--class MouseListener--><g id="elem_MouseListener"><rect codeLine="26" fill="#2E2E2E" height="42" id="MouseListener" rx="2.5" ry="2.5" style="stroke:#1B1B1B;stroke-width:0.5;" width="105.9487" x="2728" y="193.22"/><ellipse cx="2740" cy="206.22" fill="#B4A7E5" rx="8" ry="8" style="stroke:#181818;stroke-width:1;"/><path d="M2739.0156,202.2044 L2741.0781,202.2044 L2741.0781,210.22 L2739.0156,210.22 L2739.0156,202.2044 Z " fill="#000000"/><text fill="#AAAAAA" font-family="Verdana" font-size="11" font-style="italic" lengthAdjust="spacing" textLength="79.9487" x="2751" y="210.0281">MouseListener</text><line style="stroke:#1B1B1B;stroke-width:0.5;" x1="2729" x2="2832.9487" y1="219.22" y2="219.22"/><line style="stroke:#1B1B1B;stroke-width:0.5;" x1="2729" x2="2832.9487" y1="227.22" y2="227.22"/></g><!--class VentanaPrincipal--><g id="elem_VentanaPrincipal"><rect codeLine="31" fill="#2E2E2E" height="67.6094" id="VentanaPrincipal" rx="2.5" ry="2.5" style="stroke:#1B1B1B;stroke-width:0.5;" width="119.0972" x="924.5" y="180.22"/><ellipse cx="936.5" cy="193.22" fill="#ADD1B2" rx="8" ry="8" style="stroke:#181818;stroke-width:1;"/><path d="M938.625,196.7825 Q938.0469,197.0794 937.4219,197.22 Q936.8125,197.3763 936.1406,197.3763 Q934.1406,197.3763 932.9688,196.2669 Q931.7969,195.1419 931.7969,193.22 Q931.7969,191.2981 932.9688,190.1731 Q934.1406,189.0481 936.1406,189.0481 Q936.8125,189.0481 937.4219,189.2044 Q938.0469,189.3606 938.625,189.6575 L938.625,191.3138 Q938.0469,190.9231 937.4844,190.7356 Q936.9219,190.5481 936.3125,190.5481 Q935.2031,190.5481 934.5625,191.2669 Q933.9375,191.97 933.9375,193.22 Q933.9375,194.4544 934.5625,195.1731 Q935.2031,195.8763 936.3125,195.8763 Q936.9219,195.8763 937.4844,195.7044 Q938.0469,195.5169 938.625,195.1263 L938.625,196.7825 Z " fill="#000000"/><text fill="#AAAAAA" font-family="Verdana" font-size="11" lengthAdjust="spacing" textLength="93.0972" x="947.5" y="197.0281">VentanaPrincipal</text><line style="stroke:#1B1B1B;stroke-width:0.5;" x1="925.5" x2="1042.5972" y1="206.22" y2="206.22"/><rect fill="none" height="6" style="stroke:#C82930;stroke-width:1;" width="6" x="932.5" y="214.6223"/><text fill="#AAAAAA" font-family="sans-serif" font-size="11" lengthAdjust="spacing" textLength="31.0879" x="941.5" y="220.4304">diario</text><line style="stroke:#1B1B1B;stroke-width:0.5;" x1="925.5" x2="1042.5972" y1="227.0247" y2="227.0247"/><ellipse cx="935.5" cy="238.427" fill="#84BE84" rx="3" ry="3" style="stroke:#038048;stroke-width:1;"/><text fill="#AAAAAA" font-family="sans-serif" font-size="11" lengthAdjust="spacing" textLength="87.189" x="941.5" y="241.2351">Ventana(Diario)</text></g><!--class PanelBotones--><g id="elem_PanelBotones"><rect codeLine="36" fill="#2E2E2E" height="54.8047" id="PanelBotones" rx="2.5" ry="2.5" style="stroke:#1B1B1B;stroke-width:0.5;" width="199.6392" x="884" y="322.72"/><ellipse cx="942.8401" cy="335.72" fill="#ADD1B2" rx="8" ry="8" style="stroke:#181818;stroke-width:1;"/><path d="M944.9651,339.2825 Q944.387,339.5794 943.762,339.72 Q943.1526,339.8763 942.4807,339.8763 Q940.4807,339.8763 939.3088,338.7669 Q938.137,337.6419 938.137,335.72 Q938.137,333.7981 939.3088,332.6731 Q940.4807,331.5481 942.4807,331.5481 Q943.1526,331.5481 943.762,331.7044 Q944.387,331.8606 944.9651,332.1575 L944.9651,333.8138 Q944.387,333.4231 943.8245,333.2356 Q943.262,333.0481 942.6526,333.0481 Q941.5432,333.0481 940.9026,333.7669 Q940.2776,334.47 940.2776,335.72 Q940.2776,336.9544 940.9026,337.6731 Q941.5432,338.3763 942.6526,338.3763 Q943.262,338.3763 943.8245,338.2044 Q944.387,338.0169 944.9651,337.6263 L944.9651,339.2825 Z " fill="#000000"/><text fill="#AAAAAA" font-family="Verdana" font-size="11" lengthAdjust="spacing" textLength="74.959" x="958.8401" y="339.5281">PanelBotones</text><line style="stroke:#1B1B1B;stroke-width:0.5;" x1="885" x2="1082.6392" y1="348.72" y2="348.72"/><line style="stroke:#1B1B1B;stroke-width:0.5;" x1="885" x2="1082.6392" y1="356.72" y2="356.72"/><ellipse cx="895" cy="368.1223" fill="#84BE84" rx="3" ry="3" style="stroke:#038048;stroke-width:1;"/><text fill="#AAAAAA" font-family="sans-serif" font-size="11" lengthAdjust="spacing" textLength="176.6392" x="901" y="370.9304">PanelBotones(VentanaPrincipal)</text></g><!--class PanelDetallesRestaurante--><g id="elem_PanelDetallesRestaurante"><rect codeLine="40" fill="#2E2E2E" height="54.8047" id="PanelDetallesRestaurante" rx="2.5" ry="2.5" style="stroke:#1B1B1B;stroke-width:0.5;" width="174.1372" x="675" y="322.72"/><ellipse cx="689.5124" cy="335.72" fill="#ADD1B2" rx="8" ry="8" style="stroke:#181818;stroke-width:1;"/><path d="M691.6374,339.2825 Q691.0592,339.5794 690.4342,339.72 Q689.8249,339.8763 689.153,339.8763 Q687.153,339.8763 685.9811,338.7669 Q684.8092,337.6419 684.8092,335.72 Q684.8092,333.7981 685.9811,332.6731 Q687.153,331.5481 689.153,331.5481 Q689.8249,331.5481 690.4342,331.7044 Q691.0592,331.8606 691.6374,332.1575 L691.6374,333.8138 Q691.0592,333.4231 690.4967,333.2356 Q689.9342,333.0481 689.3249,333.0481 Q688.2155,333.0481 687.5749,333.7669 Q686.9499,334.47 686.9499,335.72 Q686.9499,336.9544 687.5749,337.6731 Q688.2155,338.3763 689.3249,338.3763 Q689.9342,338.3763 690.4967,338.2044 Q691.0592,338.0169 691.6374,337.6263 L691.6374,339.2825 Z " fill="#000000"/><text fill="#AAAAAA" font-family="Verdana" font-size="11" lengthAdjust="spacing" textLength="142.5542" x="701.0707" y="339.5281">PanelDetallesRestaurante</text><line style="stroke:#1B1B1B;stroke-width:0.5;" x1="676" x2="848.1372" y1="348.72" y2="348.72"/><line style="stroke:#1B1B1B;stroke-width:0.5;" x1="676" x2="848.1372" y1="356.72" y2="356.72"/><ellipse cx="686" cy="368.1223" fill="#84BE84" rx="3" ry="3" style="stroke:#038048;stroke-width:1;"/><text fill="#AAAAAA" font-family="sans-serif" font-size="11" lengthAdjust="spacing" textLength="151.1372" x="692" y="370.9304">PanelDetallesRestaurante()</text></g><!--class PanelLista--><g id="elem_PanelLista"><rect codeLine="44" fill="#2E2E2E" height="67.6094" id="PanelLista" rx="2.5" ry="2.5" style="stroke:#1B1B1B;stroke-width:0.5;" width="180.8188" x="458.5" y="316.22"/><ellipse cx="517.3401" cy="329.22" fill="#ADD1B2" rx="8" ry="8" style="stroke:#181818;stroke-width:1;"/><path d="M519.4651,332.7825 Q518.887,333.0794 518.262,333.22 Q517.6526,333.3763 516.9807,333.3763 Q514.9807,333.3763 513.8088,332.2669 Q512.637,331.1419 512.637,329.22 Q512.637,327.2981 513.8088,326.1731 Q514.9807,325.0481 516.9807,325.0481 Q517.6526,325.0481 518.262,325.2044 Q518.887,325.3606 519.4651,325.6575 L519.4651,327.3138 Q518.887,326.9231 518.3245,326.7356 Q517.762,326.5481 517.1526,326.5481 Q516.0432,326.5481 515.4026,327.2669 Q514.7776,327.97 514.7776,329.22 Q514.7776,330.4544 515.4026,331.1731 Q516.0432,331.8763 517.1526,331.8763 Q517.762,331.8763 518.3245,331.7044 Q518.887,331.5169 519.4651,331.1263 L519.4651,332.7825 Z " fill="#000000"/><text fill="#AAAAAA" font-family="Verdana" font-size="11" lengthAdjust="spacing" textLength="56.1387" x="533.3401" y="333.0281">PanelLista</text><line style="stroke:#1B1B1B;stroke-width:0.5;" x1="459.5" x2="638.3188" y1="342.22" y2="342.22"/><rect fill="none" height="6" style="stroke:#C82930;stroke-width:1;" width="6" x="466.5" y="350.6223"/><text fill="#AAAAAA" font-family="sans-serif" font-size="11" lengthAdjust="spacing" textLength="92.082" x="475.5" y="356.4304">ventanaPrincipal</text><line style="stroke:#1B1B1B;stroke-width:0.5;" x1="459.5" x2="638.3188" y1="363.0247" y2="363.0247"/><ellipse cx="469.5" cy="374.427" fill="#84BE84" rx="3" ry="3" style="stroke:#038048;stroke-width:1;"/><text fill="#AAAAAA" font-family="sans-serif" font-size="11" lengthAdjust="spacing" textLength="157.8188" x="475.5" y="377.2351">PanelLista(VentanaPrincipal)</text></g><!--class PanelMapaVisualizar--><g id="elem_PanelMapaVisualizar"><rect codeLine="49" fill="#2E2E2E" height="54.8047" id="PanelMapaVisualizar" rx="2.5" ry="2.5" style="stroke:#1B1B1B;stroke-width:0.5;" width="144.8809" x="1242.5" y="482.22"/><ellipse cx="1257.0124" cy="495.22" fill="#ADD1B2" rx="8" ry="8" style="stroke:#181818;stroke-width:1;"/><path d="M1259.1374,498.7825 Q1258.5592,499.0794 1257.9342,499.22 Q1257.3249,499.3763 1256.653,499.3763 Q1254.653,499.3763 1253.4811,498.2669 Q1252.3092,497.1419 1252.3092,495.22 Q1252.3092,493.2981 1253.4811,492.1731 Q1254.653,491.0481 1256.653,491.0481 Q1257.3249,491.0481 1257.9342,491.2044 Q1258.5592,491.3606 1259.1374,491.6575 L1259.1374,493.3138 Q1258.5592,492.9231 1257.9967,492.7356 Q1257.4342,492.5481 1256.8249,492.5481 Q1255.7155,492.5481 1255.0749,493.2669 Q1254.4499,493.97 1254.4499,495.22 Q1254.4499,496.4544 1255.0749,497.1731 Q1255.7155,497.8763 1256.8249,497.8763 Q1257.4342,497.8763 1257.9967,497.7044 Q1258.5592,497.5169 1259.1374,497.1263 L1259.1374,498.7825 Z " fill="#000000"/><text fill="#AAAAAA" font-family="Verdana" font-size="11" lengthAdjust="spacing" textLength="113.2979" x="1268.5707" y="499.0281">PanelMapaVisualizar</text><line style="stroke:#1B1B1B;stroke-width:0.5;" x1="1243.5" x2="1386.3809" y1="508.22" y2="508.22"/><line style="stroke:#1B1B1B;stroke-width:0.5;" x1="1243.5" x2="1386.3809" y1="516.22" y2="516.22"/><ellipse cx="1253.5" cy="527.6223" fill="#84BE84" rx="3" ry="3" style="stroke:#038048;stroke-width:1;"/><text fill="#AAAAAA" font-family="sans-serif" font-size="11" lengthAdjust="spacing" textLength="121.8809" x="1259.5" y="530.4304">PanelMapaVisualizar()</text></g><!--class VentanaMapa--><g id="elem_VentanaMapa"><rect codeLine="53" fill="#2E2E2E" height="80.4141" id="VentanaMapa" rx="2.5" ry="2.5" style="stroke:#1B1B1B;stroke-width:0.5;" width="280.8716" x="1140.5" y="310.22"/><ellipse cx="1239.4434" cy="323.22" fill="#ADD1B2" rx="8" ry="8" style="stroke:#181818;stroke-width:1;"/><path d="M1241.5684,326.7825 Q1240.9902,327.0794 1240.3652,327.22 Q1239.7559,327.3763 1239.084,327.3763 Q1237.084,327.3763 1235.9121,326.2669 Q1234.7402,325.1419 1234.7402,323.22 Q1234.7402,321.2981 1235.9121,320.1731 Q1237.084,319.0481 1239.084,319.0481 Q1239.7559,319.0481 1240.3652,319.2044 Q1240.9902,319.3606 1241.5684,319.6575 L1241.5684,321.3138 Q1240.9902,320.9231 1240.4277,320.7356 Q1239.8652,320.5481 1239.2559,320.5481 Q1238.1465,320.5481 1237.5059,321.2669 Q1236.8809,321.97 1236.8809,323.22 Q1236.8809,324.4544 1237.5059,325.1731 Q1238.1465,325.8763 1239.2559,325.8763 Q1239.8652,325.8763 1240.4277,325.7044 Q1240.9902,325.5169 1241.5684,325.1263 L1241.5684,326.7825 Z " fill="#000000"/><text fill="#AAAAAA" font-family="Verdana" font-size="11" lengthAdjust="spacing" textLength="75.9849" x="1255.4434" y="327.0281">VentanaMapa</text><line style="stroke:#1B1B1B;stroke-width:0.5;" x1="1141.5" x2="1420.3716" y1="336.22" y2="336.22"/><rect fill="none" height="6" style="stroke:#C82930;stroke-width:1;" width="6" x="1148.5" y="344.6223"/><text fill="#AAAAAA" font-family="sans-serif" font-size="11" lengthAdjust="spacing" textLength="92.082" x="1157.5" y="350.4304">ventanaPrincipal</text><rect fill="none" height="6" style="stroke:#C82930;stroke-width:1;" width="6" x="1148.5" y="357.427"/><text fill="#AAAAAA" font-family="sans-serif" font-size="11" lengthAdjust="spacing" textLength="113.7329" x="1157.5" y="363.2351">lista de restaurantes</text><line style="stroke:#1B1B1B;stroke-width:0.5;" x1="1141.5" x2="1420.3716" y1="369.8294" y2="369.8294"/><ellipse cx="1151.5" cy="381.2317" fill="#84BE84" rx="3" ry="3" style="stroke:#038048;stroke-width:1;"/><text fill="#AAAAAA" font-family="sans-serif" font-size="11" lengthAdjust="spacing" textLength="257.8716" x="1157.5" y="384.0398">VentanaMapa(VentanaPrincipal, Restaurantes)</text></g><!--class PanelBotonesAgregar--><g id="elem_PanelBotonesAgregar"><rect codeLine="59" fill="#2E2E2E" height="67.6094" id="PanelBotonesAgregar" rx="2.5" ry="2.5" style="stroke:#1B1B1B;stroke-width:0.5;" width="308.1406" x="1478" y="475.72"/><ellipse cx="1569.0693" cy="488.72" fill="#ADD1B2" rx="8" ry="8" style="stroke:#181818;stroke-width:1;"/><path d="M1571.1943,492.2825 Q1570.6162,492.5794 1569.9912,492.72 Q1569.3818,492.8763 1568.71,492.8763 Q1566.71,492.8763 1565.5381,491.7669 Q1564.3662,490.6419 1564.3662,488.72 Q1564.3662,486.7981 1565.5381,485.6731 Q1566.71,484.5481 1568.71,484.5481 Q1569.3818,484.5481 1569.9912,484.7044 Q1570.6162,484.8606 1571.1943,485.1575 L1571.1943,486.8138 Q1570.6162,486.4231 1570.0537,486.2356 Q1569.4912,486.0481 1568.8818,486.0481 Q1567.7725,486.0481 1567.1318,486.7669 Q1566.5068,487.47 1566.5068,488.72 Q1566.5068,489.9544 1567.1318,490.6731 Q1567.7725,491.3763 1568.8818,491.3763 Q1569.4912,491.3763 1570.0537,491.2044 Q1570.6162,491.0169 1571.1943,490.6263 L1571.1943,492.2825 Z " fill="#000000"/><text fill="#AAAAAA" font-family="Verdana" font-size="11" lengthAdjust="spacing" textLength="119.002" x="1585.0693" y="492.5281">PanelBotonesAgregar</text><line style="stroke:#1B1B1B;stroke-width:0.5;" x1="1479" x2="1785.1406" y1="501.72" y2="501.72"/><rect fill="none" height="6" style="stroke:#C82930;stroke-width:1;" width="6" x="1486" y="510.1223"/><text fill="#AAAAAA" font-family="sans-serif" font-size="11" lengthAdjust="spacing" textLength="156.5405" x="1495" y="515.9304">ventanaAgregarRestaurante</text><line style="stroke:#1B1B1B;stroke-width:0.5;" x1="1479" x2="1785.1406" y1="522.5247" y2="522.5247"/><ellipse cx="1489" cy="533.927" fill="#84BE84" rx="3" ry="3" style="stroke:#038048;stroke-width:1;"/><text fill="#AAAAAA" font-family="sans-serif" font-size="11" lengthAdjust="spacing" textLength="285.1406" x="1495" y="536.7351">PanelBotonesAgregar(VentanaAgregarRestaurante)</text></g><!--class PanelEditarRestaurante--><g id="elem_PanelEditarRestaurante"><rect codeLine="64" fill="#2E2E2E" height="54.8047" id="PanelEditarRestaurante" rx="2.5" ry="2.5" style="stroke:#1B1B1B;stroke-width:0.5;" width="161.7998" x="1821" y="482.22"/><ellipse cx="1835.5124" cy="495.22" fill="#ADD1B2" rx="8" ry="8" style="stroke:#181818;stroke-width:1;"/><path d="M1837.6374,498.7825 Q1837.0592,499.0794 1836.4342,499.22 Q1835.8249,499.3763 1835.153,499.3763 Q1833.153,499.3763 1831.9811,498.2669 Q1830.8092,497.1419 1830.8092,495.22 Q1830.8092,493.2981 1831.9811,492.1731 Q1833.153,491.0481 1835.153,491.0481 Q1835.8249,491.0481 1836.4342,491.2044 Q1837.0592,491.3606 1837.6374,491.6575 L1837.6374,493.3138 Q1837.0592,492.9231 1836.4967,492.7356 Q1835.9342,492.5481 1835.3249,492.5481 Q1834.2155,492.5481 1833.5749,493.2669 Q1832.9499,493.97 1832.9499,495.22 Q1832.9499,496.4544 1833.5749,497.1731 Q1834.2155,497.8763 1835.3249,497.8763 Q1835.9342,497.8763 1836.4967,497.7044 Q1837.0592,497.5169 1837.6374,497.1263 L1837.6374,498.7825 Z " fill="#000000"/><text fill="#AAAAAA" font-family="Verdana" font-size="11" lengthAdjust="spacing" textLength="130.2168" x="1847.0707" y="499.0281">PanelEditarRestaurante</text><line style="stroke:#1B1B1B;stroke-width:0.5;" x1="1822" x2="1981.7998" y1="508.22" y2="508.22"/><line style="stroke:#1B1B1B;stroke-width:0.5;" x1="1822" x2="1981.7998" y1="516.22" y2="516.22"/><ellipse cx="1832" cy="527.6223" fill="#84BE84" rx="3" ry="3" style="stroke:#038048;stroke-width:1;"/><text fill="#AAAAAA" font-family="sans-serif" font-size="11" lengthAdjust="spacing" textLength="138.7998" x="1838" y="530.4304">PanelEditarRestaurante()</text></g><!--class PanelMapaAgregar--><g id="elem_PanelMapaAgregar"><rect codeLine="68" fill="#2E2E2E" height="80.4141" id="PanelMapaAgregar" rx="2.5" ry="2.5" style="stroke:#1B1B1B;stroke-width:0.5;" width="135.75" x="2018" y="469.72"/><ellipse cx="2032.5124" cy="482.72" fill="#ADD1B2" rx="8" ry="8" style="stroke:#181818;stroke-width:1;"/><path d="M2034.6374,486.2825 Q2034.0592,486.5794 2033.4342,486.72 Q2032.8249,486.8763 2032.153,486.8763 Q2030.153,486.8763 2028.9811,485.7669 Q2027.8092,484.6419 2027.8092,482.72 Q2027.8092,480.7981 2028.9811,479.6731 Q2030.153,478.5481 2032.153,478.5481 Q2032.8249,478.5481 2033.4342,478.7044 Q2034.0592,478.8606 2034.6374,479.1575 L2034.6374,480.8138 Q2034.0592,480.4231 2033.4967,480.2356 Q2032.9342,480.0481 2032.3249,480.0481 Q2031.2155,480.0481 2030.5749,480.7669 Q2029.9499,481.47 2029.9499,482.72 Q2029.9499,483.9544 2030.5749,484.6731 Q2031.2155,485.3763 2032.3249,485.3763 Q2032.9342,485.3763 2033.4967,485.2044 Q2034.0592,485.0169 2034.6374,484.6263 L2034.6374,486.2825 Z " fill="#000000"/><text fill="#AAAAAA" font-family="Verdana" font-size="11" lengthAdjust="spacing" textLength="104.167" x="2044.0707" y="486.5281">PanelMapaAgregar</text><line style="stroke:#1B1B1B;stroke-width:0.5;" x1="2019" x2="2152.75" y1="495.72" y2="495.72"/><rect fill="none" height="6" style="stroke:#C82930;stroke-width:1;" width="6" x="2026" y="504.1223"/><text fill="#AAAAAA" font-family="sans-serif" font-size="11" lengthAdjust="spacing" textLength="6.5098" x="2035" y="509.9304">x</text><rect fill="none" height="6" style="stroke:#C82930;stroke-width:1;" width="6" x="2026" y="516.927"/><text fill="#AAAAAA" font-family="sans-serif" font-size="11" lengthAdjust="spacing" textLength="6.5098" x="2035" y="522.7351">y</text><line style="stroke:#1B1B1B;stroke-width:0.5;" x1="2019" x2="2152.75" y1="529.3294" y2="529.3294"/><ellipse cx="2029" cy="540.7317" fill="#84BE84" rx="3" ry="3" style="stroke:#038048;stroke-width:1;"/><text fill="#AAAAAA" font-family="sans-serif" font-size="11" lengthAdjust="spacing" textLength="112.75" x="2035" y="543.5398">PanelMapaAgregar()</text></g><!--class VentanaAgregarRestaurante--><g id="elem_VentanaAgregarRestaurante"><rect codeLine="74" fill="#2E2E2E" height="67.6094" id="VentanaAgregarRestaurante" rx="2.5" ry="2.5" style="stroke:#1B1B1B;stroke-width:0.5;" width="346.6943" x="1728.5" y="316.22"/><ellipse cx="1819.5693" cy="329.22" fill="#ADD1B2" rx="8" ry="8" style="stroke:#181818;stroke-width:1;"/><path d="M1821.6943,332.7825 Q1821.1162,333.0794 1820.4912,333.22 Q1819.8818,333.3763 1819.21,333.3763 Q1817.21,333.3763 1816.0381,332.2669 Q1814.8662,331.1419 1814.8662,329.22 Q1814.8662,327.2981 1816.0381,326.1731 Q1817.21,325.0481 1819.21,325.0481 Q1819.8818,325.0481 1820.4912,325.2044 Q1821.1162,325.3606 1821.6943,325.6575 L1821.6943,327.3138 Q1821.1162,326.9231 1820.5537,326.7356 Q1819.9912,326.5481 1819.3818,326.5481 Q1818.2725,326.5481 1817.6318,327.2669 Q1817.0068,327.97 1817.0068,329.22 Q1817.0068,330.4544 1817.6318,331.1731 Q1818.2725,331.8763 1819.3818,331.8763 Q1819.9912,331.8763 1820.5537,331.7044 Q1821.1162,331.5169 1821.6943,331.1263 L1821.6943,332.7825 Z " fill="#000000"/><text fill="#AAAAAA" font-family="Verdana" font-size="11" lengthAdjust="spacing" textLength="157.5557" x="1835.5693" y="333.0281">VentanaAgregarRestaurante</text><line style="stroke:#1B1B1B;stroke-width:0.5;" x1="1729.5" x2="2074.1943" y1="342.22" y2="342.22"/><rect fill="none" height="6" style="stroke:#C82930;stroke-width:1;" width="6" x="1736.5" y="350.6223"/><text fill="#AAAAAA" font-family="sans-serif" font-size="11" lengthAdjust="spacing" textLength="92.082" x="1745.5" y="356.4304">ventanaPrincipal</text><line style="stroke:#1B1B1B;stroke-width:0.5;" x1="1729.5" x2="2074.1943" y1="363.0247" y2="363.0247"/><ellipse cx="1739.5" cy="374.427" fill="#84BE84" rx="3" ry="3" style="stroke:#038048;stroke-width:1;"/><text fill="#AAAAAA" font-family="sans-serif" font-size="11" lengthAdjust="spacing" textLength="323.6943" x="1745.5" y="377.2351">VentanaAgregarRestaurante(VentanaAgregarRestaurante)</text></g><!--reverse link JFrame to VentanaPrincipal--><g id="link_JFrame_VentanaPrincipal"><path d="M2561.6782,175.353 C2557.1382,140.753 2544.81,90.82 2498.5,64.22 C2397.14,6 2352.18,57.25 2235.5,64.22 C1774.59,91.74 1223.27,175.8 1043.69,204.5 " fill="none" id="JFrame-backto-VentanaPrincipal" style="stroke:#FFFFFF;stroke-width:1;"/><polygon fill="none" points="2564.02,193.2,2567.6272,174.5724,2555.7292,176.1336,2564.02,193.2" style="stroke:#FFFFFF;stroke-width:1;"/></g><!--reverse link JPanel to PanelBotones--><g id="link_JPanel_PanelBotones"><path d="M2635.3343,248.8702 C2627.1043,257.9402 2628.25,254.34 2616,259.22 C2577.49,274.55 1163.97,256.26 1124,267.22 C1084.47,278.06 1044.65,303.06 1017.64,322.63 " fill="none" id="JPanel-backto-PanelBotones" style="stroke:#FFFFFF;stroke-width:1;"/><polygon fill="none" points="2647.43,235.54,2630.8909,244.8383,2639.7777,252.9021,2647.43,235.54" style="stroke:#FFFFFF;stroke-width:1;"/></g><!--reverse link ActionListener to PanelBotones--><g id="link_ActionListener_PanelBotones"><path d="M2406.7933,245.9487 C2394.0733,255.1087 2392.4,254.44 2376,259.22 C2309.22,278.69 1191.07,248.79 1124,267.22 C1084.48,278.08 1044.66,303.08 1017.64,322.64 " fill="none" id="ActionListener-backto-PanelBotones" style="stroke:#FFFFFF;stroke-width:1;stroke-dasharray:7.0,7.0;"/><polygon fill="none" points="2421.4,235.43,2403.287,241.0798,2410.2995,250.8176,2421.4,235.43" style="stroke:#FFFFFF;stroke-width:1;"/></g><!--reverse link JPanel to PanelDetallesRestaurante--><g id="link_JPanel_PanelDetallesRestaurante"><path d="M2635.3436,248.8695 C2627.1036,257.9495 2628.26,254.35 2616,259.22 C2570.83,277.18 911.89,251.19 866,267.22 C834.53,278.22 805.34,303.06 785.95,322.54 " fill="none" id="JPanel-backto-PanelDetallesRestaurante" style="stroke:#FFFFFF;stroke-width:1;"/><polygon fill="none" points="2647.44,235.54,2630.9004,244.8374,2639.7868,252.9017,2647.44,235.54" style="stroke:#FFFFFF;stroke-width:1;"/></g><!--reverse link JPanel to PanelLista--><g id="link_JPanel_PanelLista"><path d="M2635.3363,248.8729 C2627.0963,257.9429 2628.26,254.35 2616,259.22 C2565.43,279.32 708.54,249.75 657,267.22 C628.24,276.97 601.04,297.71 581.13,315.9 " fill="none" id="JPanel-backto-PanelLista" style="stroke:#FFFFFF;stroke-width:1;"/><polygon fill="none" points="2647.44,235.55,2630.8953,244.8383,2639.7772,252.9075,2647.44,235.55" style="stroke:#FFFFFF;stroke-width:1;"/></g><!--reverse link ListActionListener to PanelLista--><g id="link_ListActionListener_PanelLista"><path d="M2215.7765,218.6913 C2038.5665,226.2913 1534.1,247.32 1100,259.22 C1075.39,259.89 680.26,259.16 657,267.22 C628.31,277.17 601.11,297.91 581.18,316.05 " fill="none" id="ListActionListener-backto-PanelLista" style="stroke:#FFFFFF;stroke-width:1;stroke-dasharray:7.0,7.0;"/><polygon fill="none" points="2233.76,217.92,2215.5194,212.6968,2216.0336,224.6857,2233.76,217.92" style="stroke:#FFFFFF;stroke-width:1;"/></g><!--reverse link JPanel to PanelMapaVisualizar--><g id="link_JPanel_PanelMapaVisualizar"><path d="M2635.2463,248.7056 C2626.9963,257.7456 2628.19,254.19 2616,259.22 C2561.12,281.85 2404.79,246.94 2349,267.22 C2253.82,301.81 2264.67,372.24 2170,408.22 C2022.67,464.22 1615.85,415.98 1462,450.22 C1430.36,457.26 1396.66,470.24 1369.52,482.19 " fill="none" id="JPanel-backto-PanelMapaVisualizar" style="stroke:#FFFFFF;stroke-width:1;"/><polygon fill="none" points="2647.38,235.41,2630.8144,244.661,2639.6782,252.7502,2647.38,235.41" style="stroke:#FFFFFF;stroke-width:1;"/></g><!--reverse link JFrame to VentanaMapa--><g id="link_JFrame_VentanaMapa"><path d="M2536.6483,248.4614 C2527.8283,257.5414 2528.75,254.35 2516,259.22 C2488.65,269.66 1490.6,260.93 1462,267.22 C1422.92,275.82 1382.09,293.46 1349.12,310.18 " fill="none" id="JFrame-backto-VentanaMapa" style="stroke:#FFFFFF;stroke-width:1;"/><polygon fill="none" points="2549.19,235.55,2532.3445,244.2809,2540.9521,252.642,2549.19,235.55" style="stroke:#FFFFFF;stroke-width:1;"/></g><!--reverse link ActionListener to VentanaMapa--><g id="link_ActionListener_VentanaMapa"><path d="M2406.7893,245.9233 C2394.0593,255.0833 2392.39,254.42 2376,259.22 C2327.27,273.5 1511.59,256.28 1462,267.22 C1422.92,275.84 1382.09,293.48 1349.13,310.2 " fill="none" id="ActionListener-backto-VentanaMapa" style="stroke:#FFFFFF;stroke-width:1;stroke-dasharray:7.0,7.0;"/><polygon fill="none" points="2421.4,235.41,2403.2849,241.053,2410.2938,250.7935,2421.4,235.41" style="stroke:#FFFFFF;stroke-width:1;"/></g><!--reverse link JPanel to PanelBotonesAgregar--><g id="link_JPanel_PanelBotonesAgregar"><path d="M2635.1483,248.5108 C2626.8783,257.5208 2628.12,254.01 2616,259.22 C2588.39,271.08 2508.11,254.24 2481,267.22 C2404.66,303.76 2429.03,371.03 2353,408.22 C2242.89,462.08 1923.06,425.52 1803,450.22 C1773.65,456.26 1742.4,465.93 1714.75,475.69 " fill="none" id="JPanel-backto-PanelBotonesAgregar" style="stroke:#FFFFFF;stroke-width:1;"/><polygon fill="none" points="2647.32,235.25,2630.728,244.4536,2639.5686,252.5681,2647.32,235.25" style="stroke:#FFFFFF;stroke-width:1;"/></g><!--reverse link ActionListener to PanelBotonesAgregar--><g id="link_ActionListener_PanelBotonesAgregar"><path d="M2400.1125,244.8913 C2387.9925,252.6013 2389.06,251.69 2376,259.22 C2252.85,330.21 2228.19,364.29 2093,408.22 C1969.14,448.47 1929.6,419.68 1803,450.22 C1775.09,456.95 1745.29,466.35 1718.51,475.64 " fill="none" id="ActionListener-backto-PanelBotonesAgregar" style="stroke:#FFFFFF;stroke-width:1;stroke-dasharray:7.0,7.0;"/><polygon fill="none" points="2415.3,235.23,2396.8921,239.8288,2403.333,249.9538,2415.3,235.23" style="stroke:#FFFFFF;stroke-width:1;"/></g><!--reverse link JPanel to PanelEditarRestaurante--><g id="link_JPanel_PanelEditarRestaurante"><path d="M2633.5114,248.1831 C2625.2614,256.7331 2627.21,253.17 2616,259.22 C2602.72,266.39 2595.45,258.69 2583,267.22 C2520.04,310.35 2551.04,369.98 2485,408.22 C2391.38,462.43 2102.95,416.98 2000,450.22 C1977.94,457.34 1955.57,470.17 1937.79,482.01 " fill="none" id="JPanel-backto-PanelEditarRestaurante" style="stroke:#FFFFFF;stroke-width:1;"/><polygon fill="none" points="2646.01,235.23,2629.1936,244.0169,2637.8291,252.3494,2646.01,235.23" style="stroke:#FFFFFF;stroke-width:1;"/></g><!--reverse link JPanel to PanelMapaAgregar--><g id="link_JPanel_PanelMapaAgregar"><path d="M2659.1921,253.382 C2654.6221,293.092 2640.71,363.27 2587,408.22 C2522.11,462.52 2275.77,491.7 2154.41,503.04 " fill="none" id="JPanel-backto-PanelMapaAgregar" style="stroke:#FFFFFF;stroke-width:1;"/><polygon fill="none" points="2661.25,235.5,2653.2314,252.696,2665.1527,254.0679,2661.25,235.5" style="stroke:#FFFFFF;stroke-width:1;"/></g><!--reverse link MouseListener to PanelMapaAgregar--><g id="link_MouseListener_PanelMapaAgregar"><path d="M2766.4876,251.8988 C2750.0276,291.9488 2714.11,365.15 2647,408.22 C2566.12,460.13 2284.98,491.12 2154.06,503.06 " fill="none" id="MouseListener-backto-PanelMapaAgregar" style="stroke:#FFFFFF;stroke-width:1;stroke-dasharray:7.0,7.0;"/><polygon fill="none" points="2773.33,235.25,2760.938,249.618,2772.0372,254.1796,2773.33,235.25" style="stroke:#FFFFFF;stroke-width:1;"/></g><!--reverse link JFrame to VentanaAgregarRestaurante--><g id="link_JFrame_VentanaAgregarRestaurante"><path d="M2536.5381,248.2525 C2527.6981,257.2825 2528.67,254.17 2516,259.22 C2493.79,268.07 2324.73,264.36 2301,267.22 C2211.48,278.01 2112.16,298.39 2035,316.13 " fill="none" id="JFrame-backto-VentanaAgregarRestaurante" style="stroke:#FFFFFF;stroke-width:1;"/><polygon fill="none" points="2549.13,235.39,2532.2506,244.0552,2540.8256,252.4498,2549.13,235.39" style="stroke:#FFFFFF;stroke-width:1;"/></g><!--reverse link Diario to Restaurante--><g id="link_Diario_Restaurante"><path codeLine="80" d="M224.3379,402.2587 C220.2379,420.2087 217.96,430.14 213.43,449.96 " fill="none" id="Diario-backto-Restaurante" style="stroke:#FFFFFF;stroke-width:1;"/><polygon fill="#FFFFFF" points="227.01,390.56,221.7744,395.5186,224.3379,402.2587,229.5735,397.3001,227.01,390.56" style="stroke:#FFFFFF;stroke-width:1;"/></g><!--reverse link VentanaPrincipal to Diario--><g id="link_VentanaPrincipal_Diario"><path codeLine="81" d="M912.1416,215.6639 C811.2616,217.2939 613.59,225.73 442,267.22 C400.1,277.35 355.43,294.31 318.44,310.19 " fill="none" id="VentanaPrincipal-backto-Diario" style="stroke:#FFFFFF;stroke-width:1;"/><polygon fill="#FFFFFF" points="924.14,215.47,918.0762,211.5675,912.1416,215.6639,918.2054,219.5664,924.14,215.47" style="stroke:#FFFFFF;stroke-width:1;"/></g><!--reverse link VentanaPrincipal to PanelBotones--><g id="link_VentanaPrincipal_PanelBotones"><path codeLine="82" d="M984,260.34 C984,283.13 984,301.01 984,322.32 " fill="none" id="VentanaPrincipal-backto-PanelBotones" style="stroke:#FFFFFF;stroke-width:1;"/><polygon fill="#FFFFFF" points="984,248.34,980,254.34,984,260.34,988,254.34,984,248.34" style="stroke:#FFFFFF;stroke-width:1;"/></g><!--reverse link VentanaPrincipal to PanelDetallesRestaurante--><g id="link_VentanaPrincipal_PanelDetallesRestaurante"><path codeLine="83" d="M913.2938,242.7854 C894.1538,251.0054 884.23,256.26 866,267.22 C839.2,283.33 811.52,305.47 791.47,322.68 " fill="none" id="VentanaPrincipal-backto-PanelDetallesRestaurante" style="stroke:#FFFFFF;stroke-width:1;"/><polygon fill="#FFFFFF" points="924.32,238.05,917.2285,236.7423,913.2938,242.7854,920.3854,244.0931,924.32,238.05" style="stroke:#FFFFFF;stroke-width:1;"/></g><!--reverse link VentanaPrincipal to PanelLista--><g id="link_VentanaPrincipal_PanelLista"><path codeLine="84" d="M912.3309,216.5719 C844.8809,219.4519 745.02,229.64 657,267.22 C629.94,278.78 603.55,298.6 583.64,315.86 " fill="none" id="VentanaPrincipal-backto-PanelLista" style="stroke:#FFFFFF;stroke-width:1;"/><polygon fill="#FFFFFF" points="924.32,216.06,918.1548,212.3196,912.3309,216.5719,918.4961,220.3123,924.32,216.06" style="stroke:#FFFFFF;stroke-width:1;"/></g><!--reverse link VentanaMapa to PanelMapaVisualizar--><g id="link_VentanaMapa_PanelMapaVisualizar"><path codeLine="85" d="M1292.0237,402.2895 C1298.2037,430.8995 1303.86,457.13 1309.28,482.21 " fill="none" id="VentanaMapa-backto-PanelMapaVisualizar" style="stroke:#FFFFFF;stroke-width:1;"/><polygon fill="#FFFFFF" points="1289.49,390.56,1286.847,397.2693,1292.0237,402.2895,1294.6667,395.5802,1289.49,390.56" style="stroke:#FFFFFF;stroke-width:1;"/></g><!--reverse link VentanaPrincipal to VentanaMapa--><g id="link_VentanaPrincipal_VentanaMapa"><path codeLine="86" d="M1054.582,246.8045 C1072.692,254.9145 1081.69,258.97 1100,267.22 C1130.98,281.18 1164.92,296.54 1194.95,310.15 " fill="none" id="VentanaPrincipal-backto-VentanaMapa" style="stroke:#FFFFFF;stroke-width:1;"/><polygon fill="#FFFFFF" points="1043.63,241.9,1047.4712,248.0029,1054.582,246.8045,1050.7408,240.7016,1043.63,241.9" style="stroke:#FFFFFF;stroke-width:1;"/></g><!--reverse link VentanaAgregarRestaurante to PanelBotonesAgregar--><g id="link_VentanaAgregarRestaurante_PanelBotonesAgregar"><path codeLine="87" d="M1835.0344,390.286 C1789.1044,417.076 1735.02,448.62 1688.99,475.48 " fill="none" id="VentanaAgregarRestaurante-backto-PanelBotonesAgregar" style="stroke:#FFFFFF;stroke-width:1;"/><polygon fill="#FFFFFF" points="1845.4,384.24,1838.2019,383.8078,1835.0344,390.286,1842.2325,390.7182,1845.4,384.24" style="stroke:#FFFFFF;stroke-width:1;"/></g><!--reverse link VentanaAgregarRestaurante to PanelEditarRestaurante--><g id="link_VentanaAgregarRestaurante_PanelEditarRestaurante"><path codeLine="88" d="M1902,396.24 C1902,425.28 1902,455.03 1902,482.01 " fill="none" id="VentanaAgregarRestaurante-backto-PanelEditarRestaurante" style="stroke:#FFFFFF;stroke-width:1;"/><polygon fill="#FFFFFF" points="1902,384.24,1898,390.24,1902,396.24,1906,390.24,1902,384.24" style="stroke:#FFFFFF;stroke-width:1;"/></g><!--reverse link VentanaAgregarRestaurante to PanelMapaAgregar--><g id="link_VentanaAgregarRestaurante_PanelMapaAgregar"><path codeLine="89" d="M1949.6879,392.0415 C1978.7779,416.9315 2009.64,443.36 2040.33,469.63 " fill="none" id="VentanaAgregarRestaurante-backto-PanelMapaAgregar" style="stroke:#FFFFFF;stroke-width:1;"/><polygon fill="#FFFFFF" points="1940.57,384.24,1942.5285,391.1801,1949.6879,392.0415,1947.7295,385.1014,1940.57,384.24" style="stroke:#FFFFFF;stroke-width:1;"/></g><!--reverse link VentanaPrincipal to VentanaAgregarRestaurante--><g id="link_VentanaPrincipal_VentanaAgregarRestaurante"><path codeLine="90" d="M1055.5828,222.0505 C1142.5128,230.5705 1297.08,246.72 1438,267.22 C1534.84,281.31 1642.49,300.14 1729.71,316.2 " fill="none" id="VentanaPrincipal-backto-VentanaAgregarRestaurante" style="stroke:#FFFFFF;stroke-width:1;"/><polygon fill="#FFFFFF" points="1043.64,220.88,1049.2212,225.4462,1055.5828,222.0505,1050.0016,217.4843,1043.64,220.88" style="stroke:#FFFFFF;stroke-width:1;"/></g><!--SRC=[fLLDJzmm4BtdLxYtKBByXsqfg8YLKALoGHo6U5WilFRATj3IYlzUntQCiqvCK2-xyNozDo_ZoHVpX3ia2YbLgFMAWdf-u1rMrHxQPzWYsNI2IlAt8gJbe3NvXTf0fq0OT5P2LaJ8tOF2S6Y1iqVMGika22OknPQPZfAxm_rW0kCjhuFbXMbcW4ftT3-dALZjGPfH_MQeqqIC9XOwiKNUAbVBKpzde9YCh3cpnGdjkuyeEW3xqFea766hS0igfPCyUw2tTysklaiDEX7jwaB13j-FDo2GsoEpsUeHMYJhrjX-hYqb5AX6hjvOS6zafp5w4XQNltzQ2X5q0qoStQ8m8E16CT6oFN221vj7TQ1yveb6YQYJ8OWGScklJQQkg-yQ-oQD5AYpsiv9s6xFxSm94ntZvWBuAKbhrSV42_3dQ81prEcaJbCP8KsarGMKQpSzIrlCts7K-EMeivIJ0rdI-nuyg_xfbkdEtf4_e9QqFSwefsi71ltppCGiVAipxPOlOuAUQT6aEq9dxDV-uexcCjZ-RpnZ8-jiDKoCRmWQsESvPU8_g5rewfFpd2NLPP1UtizACzezKPb3-7yzdhD1XbaYi_fyiATcxj1ikOzUXDsYuMFnTRLA9wpA5cWVu6EdVUaO528cjayXsks5AhsLqJM-pzCraiHgNl9ZzY5aIKOsUqkIaWafqivh_0C0]--></g></svg>